<mxfile host="drawio-plugin" modified="2024-05-27T12:23:20.227Z" agent="5.0 (Windows NT 10.0; Win64; x64) AppleWebKit/537.36 (KHTML, like Gecko) Chrome/122.0.0.0 Safari/537.36" etag="AgJhmC8mqlPpwAI0bnkb" version="20.5.3" type="embed"><diagram id="FKZHlc19pE2KSnj5BncG" name="Page-1"><mxGraphModel dx="2912" dy="1090" grid="1" gridSize="10" guides="1" tooltips="1" connect="1" arrows="1" fold="1" page="1" pageScale="1" pageWidth="850" pageHeight="1100" math="0" shadow="0"><root><mxCell id="0"/><mxCell id="1" parent="0"/><mxCell id="2" value="Gui" style="rounded=0;whiteSpace=wrap;html=1;" parent="1" vertex="1"><mxGeometry x="200" y="280" width="120" height="60" as="geometry"/></mxCell><mxCell id="3" value="Extraction" style="rounded=0;whiteSpace=wrap;html=1;" parent="1" vertex="1"><mxGeometry x="400" y="280" width="120" height="60" as="geometry"/></mxCell><mxCell id="4" value="DataBase" style="rounded=0;whiteSpace=wrap;html=1;" parent="1" vertex="1"><mxGeometry x="609" y="400" width="120" height="60" as="geometry"/></mxCell><mxCell id="5" value="IO" style="rounded=0;whiteSpace=wrap;html=1;" parent="1" vertex="1"><mxGeometry x="609" y="280" width="120" height="60" as="geometry"/></mxCell><mxCell id="6" value="" style="shape=flexArrow;endArrow=classic;html=1;rounded=0;exitX=1;exitY=0.5;exitDx=0;exitDy=0;entryX=0;entryY=0.5;entryDx=0;entryDy=0;" parent="1" source="2" target="3" edge="1"><mxGeometry width="50" height="50" relative="1" as="geometry"><mxPoint x="480" y="440" as="sourcePoint"/><mxPoint x="530" y="390" as="targetPoint"/></mxGeometry></mxCell><mxCell id="7" value="" style="shape=flexArrow;endArrow=classic;html=1;rounded=0;exitX=1;exitY=0.5;exitDx=0;exitDy=0;entryX=0;entryY=0.5;entryDx=0;entryDy=0;" parent="1" source="3" target="5" edge="1"><mxGeometry width="50" height="50" relative="1" as="geometry"><mxPoint x="480" y="440" as="sourcePoint"/><mxPoint x="530" y="390" as="targetPoint"/></mxGeometry></mxCell><mxCell id="8" value="" style="shape=flexArrow;endArrow=classic;html=1;rounded=0;exitX=0.5;exitY=1;exitDx=0;exitDy=0;entryX=0.5;entryY=0;entryDx=0;entryDy=0;" parent="1" source="5" target="4" edge="1"><mxGeometry width="50" height="50" relative="1" as="geometry"><mxPoint x="480" y="440" as="sourcePoint"/><mxPoint x="530" y="390" as="targetPoint"/></mxGeometry></mxCell><mxCell id="9" value="Command line" style="rounded=0;whiteSpace=wrap;html=1;" parent="1" vertex="1"><mxGeometry x="400" y="140" width="120" height="60" as="geometry"/></mxCell><mxCell id="10" value="" style="shape=flexArrow;endArrow=classic;html=1;rounded=0;exitX=0.5;exitY=1;exitDx=0;exitDy=0;entryX=0.5;entryY=0;entryDx=0;entryDy=0;" parent="1" source="9" target="3" edge="1"><mxGeometry width="50" height="50" relative="1" as="geometry"><mxPoint x="480" y="340" as="sourcePoint"/><mxPoint x="530" y="290" as="targetPoint"/></mxGeometry></mxCell><mxCell id="11" value="" style="dashed=0;outlineConnect=0;html=1;align=center;labelPosition=center;verticalLabelPosition=bottom;verticalAlign=top;shape=mxgraph.webicons.html5;gradientColor=#DFDEDE" parent="1" vertex="1"><mxGeometry x="420" y="680" width="80" height="80" as="geometry"/></mxCell><mxCell id="13" value="DJango (MVC)" style="rounded=0;whiteSpace=wrap;html=1;" parent="1" vertex="1"><mxGeometry x="400" y="530" width="120" height="60" as="geometry"/></mxCell><mxCell id="14" value="&lt;font color=&quot;#000000&quot;&gt;User&lt;/font&gt;" style="whiteSpace=wrap;html=1;aspect=fixed;fillColor=#52EBB8;strokeColor=#36393d;" parent="1" vertex="1"><mxGeometry x="620" y="680" width="80" height="80" as="geometry"/></mxCell><mxCell id="16" value="Data&lt;br&gt;Storage" style="shape=cylinder3;whiteSpace=wrap;html=1;boundedLbl=1;backgroundOutline=1;size=15;" parent="1" vertex="1"><mxGeometry x="760" y="520" width="60" height="80" as="geometry"/></mxCell><mxCell id="18" value="" style="edgeStyle=segmentEdgeStyle;endArrow=classic;html=1;rounded=0;fontColor=#000000;exitX=0;exitY=0.5;exitDx=0;exitDy=0;entryX=0.5;entryY=0;entryDx=0;entryDy=0;" parent="1" source="4" target="13" edge="1"><mxGeometry width="50" height="50" relative="1" as="geometry"><mxPoint x="480" y="610" as="sourcePoint"/><mxPoint x="530" y="560" as="targetPoint"/></mxGeometry></mxCell><mxCell id="19" value="" style="edgeStyle=segmentEdgeStyle;endArrow=classic;html=1;rounded=0;fontColor=#000000;exitX=0;exitY=0.5;exitDx=0;exitDy=0;entryX=1;entryY=0.5;entryDx=0;entryDy=0;" parent="1" source="52" target="13" edge="1"><mxGeometry width="50" height="50" relative="1" as="geometry"><mxPoint x="613.1999999999998" y="560" as="sourcePoint"/><mxPoint x="550" y="570" as="targetPoint"/><Array as="points"/></mxGeometry></mxCell><mxCell id="20" value="" style="edgeStyle=segmentEdgeStyle;endArrow=classic;html=1;rounded=0;fontColor=#000000;exitX=0;exitY=0.5;exitDx=0;exitDy=0;entryX=0.97;entryY=0.503;entryDx=0;entryDy=0;entryPerimeter=0;" parent="1" source="14" target="11" edge="1"><mxGeometry width="50" height="50" relative="1" as="geometry"><mxPoint x="740" y="660" as="sourcePoint"/><mxPoint x="550" y="720" as="targetPoint"/></mxGeometry></mxCell><mxCell id="21" value="" style="edgeStyle=segmentEdgeStyle;endArrow=classic;html=1;rounded=0;fontColor=#000000;exitX=0.5;exitY=0;exitDx=0;exitDy=0;entryX=0.5;entryY=1;entryDx=0;entryDy=0;" parent="1" source="14" target="52" edge="1"><mxGeometry width="50" height="50" relative="1" as="geometry"><mxPoint x="740" y="660" as="sourcePoint"/><mxPoint x="660" y="592" as="targetPoint"/></mxGeometry></mxCell><mxCell id="22" value="" style="shape=flexArrow;endArrow=classic;html=1;rounded=0;fontColor=#000000;exitX=0.5;exitY=1;exitDx=0;exitDy=0;entryX=0.505;entryY=0.012;entryDx=0;entryDy=0;entryPerimeter=0;" parent="1" source="13" target="11" edge="1"><mxGeometry width="50" height="50" relative="1" as="geometry"><mxPoint x="470" y="630" as="sourcePoint"/><mxPoint x="790" y="610" as="targetPoint"/></mxGeometry></mxCell><mxCell id="23" value="" style="edgeStyle=segmentEdgeStyle;endArrow=classic;html=1;rounded=0;fontColor=#000000;exitX=1;exitY=0.5;exitDx=0;exitDy=0;entryX=0.5;entryY=1;entryDx=0;entryDy=0;entryPerimeter=0;" parent="1" source="14" target="16" edge="1"><mxGeometry width="50" height="50" relative="1" as="geometry"><mxPoint x="740" y="660" as="sourcePoint"/><mxPoint x="790" y="610" as="targetPoint"/></mxGeometry></mxCell><mxCell id="24" value="" style="edgeStyle=segmentEdgeStyle;endArrow=classic;html=1;rounded=0;fontColor=#000000;exitX=0.5;exitY=1;exitDx=0;exitDy=0;entryX=0.59;entryY=0.039;entryDx=0;entryDy=0;entryPerimeter=0;" parent="1" source="4" target="52" edge="1"><mxGeometry width="50" height="50" relative="1" as="geometry"><mxPoint x="740" y="660" as="sourcePoint"/><mxPoint x="669" y="532.0000000000001" as="targetPoint"/><Array as="points"/></mxGeometry></mxCell><mxCell id="25" value="" style="edgeStyle=segmentEdgeStyle;endArrow=classic;html=1;rounded=0;fontColor=#000000;exitX=1;exitY=0.5;exitDx=0;exitDy=0;entryX=0.5;entryY=0;entryDx=0;entryDy=0;entryPerimeter=0;" parent="1" source="5" target="16" edge="1"><mxGeometry width="50" height="50" relative="1" as="geometry"><mxPoint x="740" y="660" as="sourcePoint"/><mxPoint x="790" y="460" as="targetPoint"/><Array as="points"><mxPoint x="790" y="310"/></Array></mxGeometry></mxCell><mxCell id="26" value="" style="aspect=fixed;html=1;points=[];align=center;image;fontSize=12;image=img/lib/azure2/ai_machine_learning/Machine_Learning.svg;fontColor=#000000;fillColor=#52EBB8;" parent="1" vertex="1"><mxGeometry x="280" y="384" width="80" height="85" as="geometry"/></mxCell><mxCell id="27" value="" style="edgeStyle=segmentEdgeStyle;endArrow=classic;html=1;rounded=0;fontColor=#000000;exitX=0;exitY=0.5;exitDx=0;exitDy=0;entryX=1.002;entryY=0.533;entryDx=0;entryDy=0;entryPerimeter=0;startArrow=classic;startFill=1;" parent="1" source="4" target="26" edge="1"><mxGeometry width="50" height="50" relative="1" as="geometry"><mxPoint x="830" y="490" as="sourcePoint"/><mxPoint x="400" y="470" as="targetPoint"/><Array as="points"><mxPoint x="420" y="430"/><mxPoint x="360" y="429"/></Array></mxGeometry></mxCell><mxCell id="28" value="" style="edgeStyle=segmentEdgeStyle;endArrow=classic;html=1;rounded=0;fontColor=#000000;exitX=0.5;exitY=1;exitDx=0;exitDy=0;entryX=0.49;entryY=-0.004;entryDx=0;entryDy=0;entryPerimeter=0;" parent="1" source="3" target="26" edge="1"><mxGeometry width="50" height="50" relative="1" as="geometry"><mxPoint x="770" y="500" as="sourcePoint"/><mxPoint x="400" y="410" as="targetPoint"/><Array as="points"><mxPoint x="460" y="360"/><mxPoint x="320" y="360"/><mxPoint x="320" y="384"/></Array></mxGeometry></mxCell><mxCell id="29" value="" style="aspect=fixed;html=1;points=[];align=center;image;fontSize=12;image=img/lib/azure2/ai_machine_learning/Genomics.svg;fontColor=#000000;fillColor=#52EBB8;" parent="1" vertex="1"><mxGeometry x="220" y="522" width="36" height="68" as="geometry"/></mxCell><mxCell id="31" value="" style="edgeStyle=segmentEdgeStyle;endArrow=classic;html=1;rounded=0;fontColor=#000000;exitX=0;exitY=0.5;exitDx=0;exitDy=0;exitPerimeter=0;entryX=0.875;entryY=0.5;entryDx=0;entryDy=0;entryPerimeter=0;" parent="1" source="16" edge="1"><mxGeometry width="50" height="50" relative="1" as="geometry"><mxPoint x="460" y="470" as="sourcePoint"/><mxPoint x="699" y="556" as="targetPoint"/></mxGeometry></mxCell><mxCell id="34" value="mgl" style="whiteSpace=wrap;html=1;aspect=fixed;" parent="1" vertex="1"><mxGeometry x="280" y="120" width="80" height="80" as="geometry"/></mxCell><mxCell id="35" value="metgem" style="whiteSpace=wrap;html=1;aspect=fixed;" parent="1" vertex="1"><mxGeometry x="90" y="120" width="80" height="80" as="geometry"/></mxCell><mxCell id="36" value="" style="edgeStyle=segmentEdgeStyle;endArrow=classic;html=1;rounded=0;strokeWidth=3;exitX=1;exitY=0.5;exitDx=0;exitDy=0;entryX=0;entryY=0.5;entryDx=0;entryDy=0;" parent="1" source="35" target="34" edge="1"><mxGeometry width="50" height="50" relative="1" as="geometry"><mxPoint x="50" y="170" as="sourcePoint"/><mxPoint x="100" y="170" as="targetPoint"/></mxGeometry></mxCell><mxCell id="37" value="&amp;nbsp;Identifier&amp;nbsp;" style="edgeLabel;html=1;align=center;verticalAlign=middle;resizable=0;points=[];" parent="36" vertex="1" connectable="0"><mxGeometry x="-0.3431" y="1" relative="1" as="geometry"><mxPoint as="offset"/></mxGeometry></mxCell><mxCell id="38" value="" style="verticalLabelPosition=bottom;sketch=0;aspect=fixed;html=1;verticalAlign=top;strokeColor=#3700CC;align=center;outlineConnect=0;shape=mxgraph.citrix.role_appcontroller;fillColor=#6a00ff;gradientDirection=south;rotation=90;fontColor=#ffffff;" parent="1" vertex="1"><mxGeometry x="80" y="400" width="78" height="78" as="geometry"/></mxCell><mxCell id="39" value="MZMine3" style="whiteSpace=wrap;html=1;aspect=fixed;fillColor=#d80073;fontColor=#ffffff;strokeColor=#A50040;" parent="1" vertex="1"><mxGeometry x="-212" y="120" width="80" height="80" as="geometry"/></mxCell><mxCell id="40" value="Actor" style="shape=umlActor;verticalLabelPosition=bottom;verticalAlign=top;html=1;outlineConnect=0;fillColor=#60a917;fontColor=#ffffff;strokeColor=#2D7600;" parent="1" vertex="1"><mxGeometry x="-100" y="90" width="30" height="60" as="geometry"/></mxCell><mxCell id="41" value="" style="edgeStyle=segmentEdgeStyle;endArrow=classic;html=1;rounded=0;exitX=1;exitY=0.5;exitDx=0;exitDy=0;entryX=0;entryY=0.5;entryDx=0;entryDy=0;" parent="1" source="39" target="42" edge="1"><mxGeometry width="50" height="50" relative="1" as="geometry"><mxPoint x="-220" y="170" as="sourcePoint"/><mxPoint x="-170" y="120" as="targetPoint"/><Array as="points"><mxPoint x="-90" y="160"/><mxPoint x="-90" y="160"/></Array></mxGeometry></mxCell><mxCell id="42" value="mgf&lt;br&gt;(Experiment)" style="whiteSpace=wrap;html=1;aspect=fixed;" parent="1" vertex="1"><mxGeometry x="-40" y="120" width="80" height="80" as="geometry"/></mxCell><mxCell id="43" value="" style="edgeStyle=segmentEdgeStyle;endArrow=classic;html=1;rounded=0;strokeWidth=3;exitX=1;exitY=0.5;exitDx=0;exitDy=0;entryX=0;entryY=0.5;entryDx=0;entryDy=0;" parent="1" source="42" edge="1"><mxGeometry width="50" height="50" relative="1" as="geometry"><mxPoint x="10" y="260" as="sourcePoint"/><mxPoint x="90" y="160" as="targetPoint"/></mxGeometry></mxCell><mxCell id="44" value="&amp;nbsp;IO&amp;nbsp;" style="edgeLabel;html=1;align=center;verticalAlign=middle;resizable=0;points=[];" parent="43" vertex="1" connectable="0"><mxGeometry x="-0.328" y="2" relative="1" as="geometry"><mxPoint as="offset"/></mxGeometry></mxCell><mxCell id="45" value="" style="edgeStyle=segmentEdgeStyle;endArrow=classic;html=1;rounded=0;fontColor=#000000;exitX=0.5;exitY=1;exitDx=0;exitDy=0;entryX=0;entryY=0.5;entryDx=0;entryDy=0;" parent="1" source="42" target="2" edge="1"><mxGeometry width="50" height="50" relative="1" as="geometry"><mxPoint x="20" y="400" as="sourcePoint"/><mxPoint x="70" y="350" as="targetPoint"/><Array as="points"><mxPoint y="310"/></Array></mxGeometry></mxCell><mxCell id="48" value="" style="edgeStyle=segmentEdgeStyle;endArrow=classic;html=1;rounded=0;fontColor=#000000;exitX=-0.027;exitY=0.644;exitDx=0;exitDy=0;exitPerimeter=0;entryX=0.489;entryY=0.014;entryDx=0;entryDy=0;entryPerimeter=0;" parent="1" source="26" target="38" edge="1"><mxGeometry width="50" height="50" relative="1" as="geometry"><mxPoint x="50" y="450" as="sourcePoint"/><mxPoint x="180" y="450" as="targetPoint"/></mxGeometry></mxCell><mxCell id="49" value="" style="edgeStyle=segmentEdgeStyle;endArrow=classic;html=1;rounded=0;fontColor=#000000;exitX=-0.025;exitY=0.645;exitDx=0;exitDy=0;exitPerimeter=0;entryX=0.48;entryY=0.017;entryDx=0;entryDy=0;entryPerimeter=0;" parent="1" source="26" target="29" edge="1"><mxGeometry width="50" height="50" relative="1" as="geometry"><mxPoint x="170" y="520" as="sourcePoint"/><mxPoint x="220" y="470" as="targetPoint"/></mxGeometry></mxCell><mxCell id="50" value="" style="edgeStyle=segmentEdgeStyle;endArrow=classic;html=1;rounded=0;strokeWidth=3;exitX=1.013;exitY=0.493;exitDx=0;exitDy=0;entryX=0;entryY=0.5;entryDx=0;entryDy=0;exitPerimeter=0;" parent="1" source="38" target="13" edge="1"><mxGeometry width="50" height="50" relative="1" as="geometry"><mxPoint x="158.08000000000004" y="500" as="sourcePoint"/><mxPoint x="158.00200000000007" y="581.7019999999998" as="targetPoint"/><Array as="points"><mxPoint x="120" y="640"/><mxPoint x="320" y="640"/><mxPoint x="320" y="560"/></Array></mxGeometry></mxCell><mxCell id="51" value="What are the&lt;br&gt;neighbors&amp;nbsp;" style="edgeLabel;html=1;align=center;verticalAlign=middle;resizable=0;points=[];" parent="50" vertex="1" connectable="0"><mxGeometry x="-0.3431" y="1" relative="1" as="geometry"><mxPoint as="offset"/></mxGeometry></mxCell><mxCell id="53" value="" style="edgeStyle=orthogonalEdgeStyle;rounded=0;orthogonalLoop=1;jettySize=auto;html=1;fontColor=#000000;startArrow=classic;startFill=1;exitX=1;exitY=0.5;exitDx=0;exitDy=0;" parent="1" source="52" target="16" edge="1"><mxGeometry relative="1" as="geometry"/></mxCell><mxCell id="52" value="nuage" style="aspect=fixed;perimeter=ellipsePerimeter;html=1;align=center;shadow=0;dashed=0;spacingTop=3;image;image=img/lib/active_directory/internet_cloud.svg;" parent="1" vertex="1"><mxGeometry x="612.38" y="530" width="95.24" height="60" as="geometry"/></mxCell><mxCell id="54" value="" style="edgeStyle=segmentEdgeStyle;endArrow=classic;html=1;rounded=0;fontColor=#000000;exitX=0.5;exitY=0;exitDx=0;exitDy=0;entryX=0.5;entryY=0;entryDx=0;entryDy=0;" parent="1" source="42" target="9" edge="1"><mxGeometry width="50" height="50" relative="1" as="geometry"><mxPoint x="10" y="210" as="sourcePoint"/><mxPoint x="210" y="320" as="targetPoint"/><Array as="points"><mxPoint y="80"/><mxPoint x="460" y="80"/></Array></mxGeometry></mxCell><mxCell id="55" value="mgf&lt;br&gt;(database)" style="whiteSpace=wrap;html=1;aspect=fixed;" parent="1" vertex="1"><mxGeometry x="-330" y="505" width="80" height="80" as="geometry"/></mxCell><mxCell id="58" value="Data&lt;br&gt;Storage" style="shape=cylinder3;whiteSpace=wrap;html=1;boundedLbl=1;backgroundOutline=1;size=15;" parent="1" vertex="1"><mxGeometry x="-510" y="250" width="60" height="80" as="geometry"/></mxCell><mxCell id="60" value="Directory structure" style="swimlane;fontStyle=0;childLayout=stackLayout;horizontal=1;startSize=30;horizontalStack=0;resizeParent=1;resizeParentMax=0;resizeLast=0;collapsible=1;marginBottom=0;whiteSpace=wrap;html=1;" parent="1" vertex="1"><mxGeometry x="-550" y="440" width="140" height="120" as="geometry"/></mxCell><mxCell id="61" value="Directory path" style="text;strokeColor=none;fillColor=none;align=left;verticalAlign=middle;spacingLeft=4;spacingRight=4;overflow=hidden;points=[[0,0.5],[1,0.5]];portConstraint=eastwest;rotatable=0;whiteSpace=wrap;html=1;" parent="60" vertex="1"><mxGeometry y="30" width="140" height="30" as="geometry"/></mxCell><mxCell id="62" value="Directory name" style="text;strokeColor=none;fillColor=none;align=left;verticalAlign=middle;spacingLeft=4;spacingRight=4;overflow=hidden;points=[[0,0.5],[1,0.5]];portConstraint=eastwest;rotatable=0;whiteSpace=wrap;html=1;" parent="60" vertex="1"><mxGeometry y="60" width="140" height="30" as="geometry"/></mxCell><mxCell id="63" value="Filenames" style="text;strokeColor=none;fillColor=none;align=left;verticalAlign=middle;spacingLeft=4;spacingRight=4;overflow=hidden;points=[[0,0.5],[1,0.5]];portConstraint=eastwest;rotatable=0;whiteSpace=wrap;html=1;" parent="60" vertex="1"><mxGeometry y="90" width="140" height="30" as="geometry"/></mxCell><mxCell id="65" value="" style="edgeStyle=segmentEdgeStyle;endArrow=classic;html=1;rounded=0;exitX=0.5;exitY=1;exitDx=0;exitDy=0;exitPerimeter=0;entryX=0.5;entryY=0;entryDx=0;entryDy=0;" parent="1" source="58" target="60" edge="1"><mxGeometry width="50" height="50" relative="1" as="geometry"><mxPoint x="-10" y="600" as="sourcePoint"/><mxPoint x="40" y="550" as="targetPoint"/></mxGeometry></mxCell><mxCell id="66" value="" style="edgeStyle=segmentEdgeStyle;endArrow=classic;html=1;rounded=0;exitX=1;exitY=0.5;exitDx=0;exitDy=0;entryX=0;entryY=0.5;entryDx=0;entryDy=0;" parent="1" source="63" target="55" edge="1"><mxGeometry width="50" height="50" relative="1" as="geometry"><mxPoint x="-10" y="600" as="sourcePoint"/><mxPoint x="40" y="550" as="targetPoint"/><Array as="points"/></mxGeometry></mxCell><mxCell id="106" value="" style="edgeStyle=orthogonalEdgeStyle;rounded=0;orthogonalLoop=1;jettySize=auto;html=1;" parent="1" source="67" target="96" edge="1"><mxGeometry relative="1" as="geometry"/></mxCell><mxCell id="67" value="Distributed processing over CPUs" style="swimlane;startSize=20;horizontal=1;childLayout=treeLayout;horizontalTree=0;resizable=0;containerType=tree;" parent="1" vertex="1"><mxGeometry x="-430" y="680" width="280" height="300" as="geometry"/></mxCell><mxCell id="68" value="CPU" style="whiteSpace=wrap;html=1;" parent="67" vertex="1"><mxGeometry x="90" y="40" width="100" height="40" as="geometry"/></mxCell><mxCell id="69" value="core 1" style="whiteSpace=wrap;html=1;" parent="67" vertex="1"><mxGeometry x="20" y="130" width="100" height="40" as="geometry"/></mxCell><mxCell id="70" value="" style="edgeStyle=elbowEdgeStyle;elbow=vertical;html=1;rounded=0;" parent="67" source="68" target="69" edge="1"><mxGeometry relative="1" as="geometry"/></mxCell><mxCell id="81" value="core 2" style="whiteSpace=wrap;html=1;" parent="67" vertex="1"><mxGeometry x="160" y="130" width="100" height="40" as="geometry"/></mxCell><mxCell id="82" value="" style="edgeStyle=elbowEdgeStyle;elbow=vertical;html=1;rounded=0;endArrow=none;" parent="67" source="68" target="81" edge="1"><mxGeometry relative="1" as="geometry"><mxPoint x="-290" y="830" as="sourcePoint"/><mxPoint x="-220" y="880" as="targetPoint"/></mxGeometry></mxCell><mxCell id="110" value="" style="image;html=1;image=img/lib/clip_art/computers/Database_128x128.png" parent="67" vertex="1"><mxGeometry x="170" y="210" width="80" height="80" as="geometry"/></mxCell><mxCell id="111" value="" style="image;html=1;image=img/lib/clip_art/computers/Database_128x128.png" parent="67" vertex="1"><mxGeometry x="30" y="210" width="80" height="80" as="geometry"/></mxCell><mxCell id="112" value="" style="edgeStyle=elbowEdgeStyle;elbow=vertical;html=1;rounded=0;entryX=0.5;entryY=0;entryDx=0;entryDy=0;exitX=0.5;exitY=1;exitDx=0;exitDy=0;" parent="67" source="69" target="111" edge="1"><mxGeometry relative="1" as="geometry"><mxPoint x="150" y="90" as="sourcePoint"/><mxPoint x="80" y="140" as="targetPoint"/></mxGeometry></mxCell><mxCell id="113" value="" style="edgeStyle=elbowEdgeStyle;elbow=vertical;html=1;rounded=0;entryX=0.5;entryY=0;entryDx=0;entryDy=0;exitX=0.5;exitY=1;exitDx=0;exitDy=0;" parent="67" source="81" target="110" edge="1"><mxGeometry relative="1" as="geometry"><mxPoint x="80" y="180" as="sourcePoint"/><mxPoint x="80" y="230" as="targetPoint"/></mxGeometry></mxCell><mxCell id="73" value="" style="shape=flexArrow;endArrow=classic;html=1;rounded=0;exitX=0.5;exitY=1;exitDx=0;exitDy=0;entryX=0.5;entryY=0;entryDx=0;entryDy=0;" parent="1" source="55" target="67" edge="1"><mxGeometry width="50" height="50" relative="1" as="geometry"><mxPoint x="-10" y="600" as="sourcePoint"/><mxPoint x="40" y="550" as="targetPoint"/></mxGeometry></mxCell><mxCell id="96" value="Into database" style="swimlane;startSize=20;horizontal=1;childLayout=treeLayout;horizontalTree=0;resizable=0;containerType=tree;" parent="1" vertex="1"><mxGeometry x="-70" y="670" width="140" height="320" as="geometry"/></mxCell><mxCell id="97" value="Json" style="whiteSpace=wrap;html=1;" parent="96" vertex="1"><mxGeometry x="20" y="40" width="100" height="40" as="geometry"/></mxCell><mxCell id="102" value="SQL" style="whiteSpace=wrap;html=1;" parent="96" vertex="1"><mxGeometry x="20" y="130" width="100" height="40" as="geometry"/></mxCell><mxCell id="103" value="" style="edgeStyle=elbowEdgeStyle;elbow=vertical;html=1;rounded=0;endArrow=classic;startArrow=none;startFill=0;endFill=1;" parent="96" source="97" target="102" edge="1"><mxGeometry relative="1" as="geometry"><mxPoint x="-360" y="830" as="sourcePoint"/><mxPoint x="-290" y="880" as="targetPoint"/></mxGeometry></mxCell><mxCell id="107" value="MolRefAnt_DB" style="image;html=1;image=img/lib/clip_art/computers/Database_128x128.png" parent="96" vertex="1"><mxGeometry x="30" y="220" width="80" height="80" as="geometry"/></mxCell><mxCell id="114" value="" style="edgeStyle=elbowEdgeStyle;elbow=vertical;html=1;rounded=0;entryX=0.5;entryY=0;entryDx=0;entryDy=0;exitX=0.5;exitY=1;exitDx=0;exitDy=0;" parent="96" source="102" target="107" edge="1"><mxGeometry relative="1" as="geometry"><mxPoint x="-210" y="200" as="sourcePoint"/><mxPoint x="-210" y="240" as="targetPoint"/></mxGeometry></mxCell></root></mxGraphModel></diagram></mxfile>